<mxfile host="app.diagrams.net" modified="2024-04-25T13:41:05.443Z" agent="Mozilla/5.0 (Windows NT 10.0; Win64; x64) AppleWebKit/537.36 (KHTML, like Gecko) Chrome/123.0.0.0 Safari/537.36" etag="FEjYu-8AWzRsd2b0JL4r" version="24.2.8" type="device">
  <diagram id="prtHgNgQTEPvFCAcTncT" name="Page-1">
    <mxGraphModel dx="954" dy="566" grid="1" gridSize="10" guides="0" tooltips="1" connect="1" arrows="1" fold="1" page="1" pageScale="1" pageWidth="827" pageHeight="1169" math="0" shadow="0">
      <root>
        <mxCell id="0" />
        <mxCell id="1" parent="0" />
        <mxCell id="yjY4PhzrJS9ordfUiITK-21" value="药品管理系统" style="swimlane;childLayout=stackLayout;resizeParent=1;resizeParentMax=0;startSize=20;html=1;" parent="1" vertex="1">
          <mxGeometry x="150.00000000000045" y="240" width="970" height="480" as="geometry" />
        </mxCell>
        <mxCell id="yjY4PhzrJS9ordfUiITK-22" value="管理员管理" style="swimlane;startSize=20;html=1;" parent="yjY4PhzrJS9ordfUiITK-21" vertex="1">
          <mxGeometry y="20" width="120" height="460" as="geometry" />
        </mxCell>
        <mxCell id="8YP5VaKLG-nt9vqhNVLD-7" style="rounded=0;orthogonalLoop=1;jettySize=auto;html=1;exitX=0;exitY=0;exitDx=0;exitDy=0;entryX=0.25;entryY=0;entryDx=0;entryDy=0;endArrow=openThin;endFill=0;" parent="yjY4PhzrJS9ordfUiITK-22" source="yjY4PhzrJS9ordfUiITK-44" target="yjY4PhzrJS9ordfUiITK-59" edge="1">
          <mxGeometry relative="1" as="geometry">
            <mxPoint x="29.999999999999545" y="210" as="targetPoint" />
          </mxGeometry>
        </mxCell>
        <mxCell id="yjY4PhzrJS9ordfUiITK-44" value="添加&lt;div&gt;管理员信息&lt;/div&gt;" style="rounded=1;whiteSpace=wrap;html=1;" parent="yjY4PhzrJS9ordfUiITK-22" vertex="1">
          <mxGeometry x="40" y="30" width="70" height="30" as="geometry" />
        </mxCell>
        <mxCell id="8YP5VaKLG-nt9vqhNVLD-6" style="rounded=0;orthogonalLoop=1;jettySize=auto;html=1;exitX=0;exitY=0.25;exitDx=0;exitDy=0;endArrow=openThin;endFill=0;entryX=0.5;entryY=0;entryDx=0;entryDy=0;" parent="yjY4PhzrJS9ordfUiITK-22" source="yjY4PhzrJS9ordfUiITK-45" target="yjY4PhzrJS9ordfUiITK-59" edge="1">
          <mxGeometry relative="1" as="geometry">
            <mxPoint x="42.622950819671814" y="210" as="targetPoint" />
          </mxGeometry>
        </mxCell>
        <mxCell id="yjY4PhzrJS9ordfUiITK-45" value="删除&lt;div&gt;管理员信息&lt;/div&gt;" style="rounded=1;whiteSpace=wrap;html=1;" parent="yjY4PhzrJS9ordfUiITK-22" vertex="1">
          <mxGeometry x="40" y="70" width="70" height="30" as="geometry" />
        </mxCell>
        <mxCell id="8YP5VaKLG-nt9vqhNVLD-5" style="rounded=0;orthogonalLoop=1;jettySize=auto;html=1;exitX=0;exitY=1;exitDx=0;exitDy=0;entryX=0.75;entryY=0;entryDx=0;entryDy=0;endArrow=openThin;endFill=0;" parent="yjY4PhzrJS9ordfUiITK-22" source="yjY4PhzrJS9ordfUiITK-56" target="yjY4PhzrJS9ordfUiITK-59" edge="1">
          <mxGeometry relative="1" as="geometry">
            <mxPoint x="49.999999999999545" y="210" as="targetPoint" />
          </mxGeometry>
        </mxCell>
        <mxCell id="yjY4PhzrJS9ordfUiITK-56" value="修改&lt;div&gt;管理&lt;span style=&quot;background-color: initial;&quot;&gt;员信息&lt;/span&gt;&lt;/div&gt;" style="rounded=1;whiteSpace=wrap;html=1;" parent="yjY4PhzrJS9ordfUiITK-22" vertex="1">
          <mxGeometry x="40" y="110" width="70" height="30" as="geometry" />
        </mxCell>
        <mxCell id="8YP5VaKLG-nt9vqhNVLD-74" style="rounded=0;orthogonalLoop=1;jettySize=auto;html=1;exitX=0.5;exitY=1;exitDx=0;exitDy=0;entryX=1;entryY=0.75;entryDx=0;entryDy=0;endArrow=openThin;endFill=0;" parent="yjY4PhzrJS9ordfUiITK-22" source="yjY4PhzrJS9ordfUiITK-46" target="yjY4PhzrJS9ordfUiITK-59" edge="1">
          <mxGeometry relative="1" as="geometry">
            <mxPoint x="59.999999999999545" y="230" as="targetPoint" />
          </mxGeometry>
        </mxCell>
        <mxCell id="yjY4PhzrJS9ordfUiITK-46" value="查询&lt;div&gt;管理&lt;span style=&quot;background-color: initial;&quot;&gt;员信息&lt;/span&gt;&lt;/div&gt;" style="rounded=1;whiteSpace=wrap;html=1;" parent="yjY4PhzrJS9ordfUiITK-22" vertex="1">
          <mxGeometry x="40" y="160" width="70" height="35" as="geometry" />
        </mxCell>
        <mxCell id="yjY4PhzrJS9ordfUiITK-59" value="" style="shape=image;html=1;verticalAlign=top;verticalLabelPosition=bottom;labelBackgroundColor=#ffffff;imageAspect=0;aspect=fixed;image=https://cdn4.iconfinder.com/data/icons/ionicons/512/icon-ios7-circle-filled-128.png" parent="yjY4PhzrJS9ordfUiITK-22" vertex="1">
          <mxGeometry y="200" width="40" height="40" as="geometry" />
        </mxCell>
        <mxCell id="yjY4PhzrJS9ordfUiITK-36" value="顾客管理" style="swimlane;startSize=20;html=1;" parent="yjY4PhzrJS9ordfUiITK-21" vertex="1">
          <mxGeometry x="120" y="20" width="120" height="460" as="geometry" />
        </mxCell>
        <mxCell id="yjY4PhzrJS9ordfUiITK-60" value="" style="shape=image;html=1;verticalAlign=top;verticalLabelPosition=bottom;labelBackgroundColor=#ffffff;imageAspect=0;aspect=fixed;image=https://cdn4.iconfinder.com/data/icons/ionicons/512/icon-ios7-circle-filled-128.png" parent="yjY4PhzrJS9ordfUiITK-36" vertex="1">
          <mxGeometry x="-4.547473508864641e-13" y="360" width="40" height="40" as="geometry" />
        </mxCell>
        <mxCell id="8YP5VaKLG-nt9vqhNVLD-24" style="rounded=0;orthogonalLoop=1;jettySize=auto;html=1;exitX=0;exitY=0;exitDx=0;exitDy=0;entryX=0.25;entryY=0;entryDx=0;entryDy=0;endArrow=openThin;endFill=0;" parent="yjY4PhzrJS9ordfUiITK-36" source="8YP5VaKLG-nt9vqhNVLD-25" target="yjY4PhzrJS9ordfUiITK-60" edge="1">
          <mxGeometry relative="1" as="geometry">
            <mxPoint x="10" y="360" as="targetPoint" />
          </mxGeometry>
        </mxCell>
        <mxCell id="8YP5VaKLG-nt9vqhNVLD-25" value="添加&lt;div&gt;&lt;span style=&quot;background-color: initial;&quot;&gt;顾客信息&lt;/span&gt;&lt;/div&gt;" style="rounded=1;whiteSpace=wrap;html=1;" parent="yjY4PhzrJS9ordfUiITK-36" vertex="1">
          <mxGeometry x="10" y="120" width="70" height="30" as="geometry" />
        </mxCell>
        <mxCell id="8YP5VaKLG-nt9vqhNVLD-26" style="rounded=0;orthogonalLoop=1;jettySize=auto;html=1;exitX=0;exitY=0.25;exitDx=0;exitDy=0;endArrow=openThin;endFill=0;entryX=0.5;entryY=0;entryDx=0;entryDy=0;" parent="yjY4PhzrJS9ordfUiITK-36" source="8YP5VaKLG-nt9vqhNVLD-27" target="yjY4PhzrJS9ordfUiITK-60" edge="1">
          <mxGeometry relative="1" as="geometry">
            <mxPoint x="23" y="360" as="targetPoint" />
          </mxGeometry>
        </mxCell>
        <mxCell id="8YP5VaKLG-nt9vqhNVLD-27" value="删除&lt;div&gt;顾客信息&lt;/div&gt;" style="rounded=1;whiteSpace=wrap;html=1;" parent="yjY4PhzrJS9ordfUiITK-36" vertex="1">
          <mxGeometry x="20" y="200" width="70" height="30" as="geometry" />
        </mxCell>
        <mxCell id="8YP5VaKLG-nt9vqhNVLD-28" style="rounded=0;orthogonalLoop=1;jettySize=auto;html=1;exitX=0;exitY=1;exitDx=0;exitDy=0;entryX=0.75;entryY=0;entryDx=0;entryDy=0;endArrow=openThin;endFill=0;" parent="yjY4PhzrJS9ordfUiITK-36" source="8YP5VaKLG-nt9vqhNVLD-29" target="yjY4PhzrJS9ordfUiITK-60" edge="1">
          <mxGeometry relative="1" as="geometry">
            <mxPoint x="30" y="360" as="targetPoint" />
          </mxGeometry>
        </mxCell>
        <mxCell id="8YP5VaKLG-nt9vqhNVLD-29" value="修改&lt;div&gt;顾客信息&lt;/div&gt;" style="rounded=1;whiteSpace=wrap;html=1;" parent="yjY4PhzrJS9ordfUiITK-36" vertex="1">
          <mxGeometry x="30" y="235" width="70" height="30" as="geometry" />
        </mxCell>
        <mxCell id="8YP5VaKLG-nt9vqhNVLD-30" style="rounded=0;orthogonalLoop=1;jettySize=auto;html=1;exitX=0;exitY=1;exitDx=0;exitDy=0;entryX=1;entryY=0.5;entryDx=0;entryDy=0;endArrow=openThin;endFill=0;" parent="yjY4PhzrJS9ordfUiITK-36" source="8YP5VaKLG-nt9vqhNVLD-31" target="yjY4PhzrJS9ordfUiITK-60" edge="1">
          <mxGeometry relative="1" as="geometry">
            <mxPoint x="40" y="380" as="targetPoint" />
          </mxGeometry>
        </mxCell>
        <mxCell id="8YP5VaKLG-nt9vqhNVLD-31" value="查询&lt;div&gt;顾客信息&lt;/div&gt;" style="rounded=1;whiteSpace=wrap;html=1;" parent="yjY4PhzrJS9ordfUiITK-36" vertex="1">
          <mxGeometry x="40" y="275" width="70" height="30" as="geometry" />
        </mxCell>
        <mxCell id="yjY4PhzrJS9ordfUiITK-23" value="供货商管理" style="swimlane;startSize=20;html=1;" parent="yjY4PhzrJS9ordfUiITK-21" vertex="1">
          <mxGeometry x="240" y="20" width="130" height="460" as="geometry" />
        </mxCell>
        <mxCell id="8YP5VaKLG-nt9vqhNVLD-44" value="添加&lt;div&gt;供货商信息&lt;/div&gt;" style="rounded=1;whiteSpace=wrap;html=1;" parent="yjY4PhzrJS9ordfUiITK-23" vertex="1">
          <mxGeometry x="40" y="290" width="70" height="30" as="geometry" />
        </mxCell>
        <mxCell id="8YP5VaKLG-nt9vqhNVLD-46" value="删除&lt;div&gt;供货商信息&lt;/div&gt;" style="rounded=1;whiteSpace=wrap;html=1;" parent="yjY4PhzrJS9ordfUiITK-23" vertex="1">
          <mxGeometry x="40" y="330" width="70" height="30" as="geometry" />
        </mxCell>
        <mxCell id="8YP5VaKLG-nt9vqhNVLD-48" value="修改&lt;div&gt;供货商信息&lt;/div&gt;" style="rounded=1;whiteSpace=wrap;html=1;" parent="yjY4PhzrJS9ordfUiITK-23" vertex="1">
          <mxGeometry x="40" y="370" width="70" height="30" as="geometry" />
        </mxCell>
        <mxCell id="8YP5VaKLG-nt9vqhNVLD-50" value="查询&lt;div&gt;供货商信息&lt;/div&gt;" style="rounded=1;whiteSpace=wrap;html=1;" parent="yjY4PhzrJS9ordfUiITK-23" vertex="1">
          <mxGeometry x="50" y="410" width="70" height="30" as="geometry" />
        </mxCell>
        <mxCell id="yjY4PhzrJS9ordfUiITK-58" value="" style="shape=image;html=1;verticalAlign=top;verticalLabelPosition=bottom;labelBackgroundColor=#ffffff;imageAspect=0;aspect=fixed;image=https://cdn4.iconfinder.com/data/icons/ionicons/512/icon-ios7-circle-filled-128.png" parent="yjY4PhzrJS9ordfUiITK-23" vertex="1">
          <mxGeometry x="-4.547473508864641e-13" y="420" width="40" height="40" as="geometry" />
        </mxCell>
        <mxCell id="8YP5VaKLG-nt9vqhNVLD-43" style="rounded=0;orthogonalLoop=1;jettySize=auto;html=1;exitX=0;exitY=0;exitDx=0;exitDy=0;entryX=0.25;entryY=0;entryDx=0;entryDy=0;endArrow=openThin;endFill=0;" parent="yjY4PhzrJS9ordfUiITK-23" source="8YP5VaKLG-nt9vqhNVLD-44" target="yjY4PhzrJS9ordfUiITK-58" edge="1">
          <mxGeometry relative="1" as="geometry">
            <mxPoint x="10" y="425" as="targetPoint" />
          </mxGeometry>
        </mxCell>
        <mxCell id="8YP5VaKLG-nt9vqhNVLD-45" style="rounded=0;orthogonalLoop=1;jettySize=auto;html=1;exitX=0;exitY=0.25;exitDx=0;exitDy=0;endArrow=openThin;endFill=0;entryX=0.5;entryY=0;entryDx=0;entryDy=0;" parent="yjY4PhzrJS9ordfUiITK-23" source="8YP5VaKLG-nt9vqhNVLD-46" target="yjY4PhzrJS9ordfUiITK-58" edge="1">
          <mxGeometry relative="1" as="geometry">
            <mxPoint x="22.999999999999545" y="410" as="targetPoint" />
          </mxGeometry>
        </mxCell>
        <mxCell id="8YP5VaKLG-nt9vqhNVLD-47" style="rounded=0;orthogonalLoop=1;jettySize=auto;html=1;exitX=0;exitY=1;exitDx=0;exitDy=0;entryX=0.75;entryY=0;entryDx=0;entryDy=0;endArrow=openThin;endFill=0;" parent="yjY4PhzrJS9ordfUiITK-23" source="8YP5VaKLG-nt9vqhNVLD-48" target="yjY4PhzrJS9ordfUiITK-58" edge="1">
          <mxGeometry relative="1" as="geometry">
            <mxPoint x="30" y="425" as="targetPoint" />
          </mxGeometry>
        </mxCell>
        <mxCell id="8YP5VaKLG-nt9vqhNVLD-49" style="rounded=0;orthogonalLoop=1;jettySize=auto;html=1;exitX=0;exitY=1;exitDx=0;exitDy=0;endArrow=openThin;endFill=0;entryX=1;entryY=0.75;entryDx=0;entryDy=0;" parent="yjY4PhzrJS9ordfUiITK-23" source="8YP5VaKLG-nt9vqhNVLD-50" target="yjY4PhzrJS9ordfUiITK-58" edge="1">
          <mxGeometry relative="1" as="geometry">
            <mxPoint x="29.999999999999545" y="520" as="targetPoint" />
          </mxGeometry>
        </mxCell>
        <mxCell id="yjY4PhzrJS9ordfUiITK-24" value="用户" style="swimlane;startSize=20;html=1;" parent="yjY4PhzrJS9ordfUiITK-21" vertex="1">
          <mxGeometry x="370" y="20" width="200" height="460" as="geometry" />
        </mxCell>
        <mxCell id="yjY4PhzrJS9ordfUiITK-37" style="edgeStyle=orthogonalEdgeStyle;rounded=0;orthogonalLoop=1;jettySize=auto;html=1;exitX=0.5;exitY=1;exitDx=0;exitDy=0;endArrow=openThin;endFill=0;" parent="yjY4PhzrJS9ordfUiITK-24" source="yjY4PhzrJS9ordfUiITK-19" target="yjY4PhzrJS9ordfUiITK-20" edge="1">
          <mxGeometry relative="1" as="geometry" />
        </mxCell>
        <mxCell id="yjY4PhzrJS9ordfUiITK-19" value="" style="shape=image;html=1;verticalAlign=top;verticalLabelPosition=bottom;labelBackgroundColor=#ffffff;imageAspect=0;aspect=fixed;image=https://cdn4.iconfinder.com/data/icons/essential-app-2/16/record-round-circle-dot-128.png" parent="yjY4PhzrJS9ordfUiITK-24" vertex="1">
          <mxGeometry x="108.53999999999954" y="30" width="28" height="28" as="geometry" />
        </mxCell>
        <mxCell id="yjY4PhzrJS9ordfUiITK-20" value="登录验证" style="rounded=1;whiteSpace=wrap;html=1;" parent="yjY4PhzrJS9ordfUiITK-24" vertex="1">
          <mxGeometry x="92.53999999999999" y="80" width="60" height="30" as="geometry" />
        </mxCell>
        <mxCell id="yjY4PhzrJS9ordfUiITK-41" style="rounded=0;orthogonalLoop=1;jettySize=auto;html=1;exitX=0.5;exitY=1;exitDx=0;exitDy=0;exitPerimeter=0;entryX=0.5;entryY=0;entryDx=0;entryDy=0;endArrow=openThin;endFill=0;" parent="yjY4PhzrJS9ordfUiITK-24" source="yjY4PhzrJS9ordfUiITK-38" target="yjY4PhzrJS9ordfUiITK-39" edge="1">
          <mxGeometry relative="1" as="geometry" />
        </mxCell>
        <mxCell id="yjY4PhzrJS9ordfUiITK-42" style="edgeStyle=orthogonalEdgeStyle;rounded=0;orthogonalLoop=1;jettySize=auto;html=1;exitX=0;exitY=0.5;exitDx=0;exitDy=0;exitPerimeter=0;entryX=0;entryY=0.5;entryDx=0;entryDy=0;endArrow=openThin;endFill=0;" parent="yjY4PhzrJS9ordfUiITK-24" source="yjY4PhzrJS9ordfUiITK-38" target="yjY4PhzrJS9ordfUiITK-20" edge="1">
          <mxGeometry relative="1" as="geometry" />
        </mxCell>
        <mxCell id="yjY4PhzrJS9ordfUiITK-43" value="用户名或密码错误" style="edgeLabel;html=1;align=center;verticalAlign=middle;resizable=0;points=[];" parent="yjY4PhzrJS9ordfUiITK-42" vertex="1" connectable="0">
          <mxGeometry x="-0.0613" y="5" relative="1" as="geometry">
            <mxPoint as="offset" />
          </mxGeometry>
        </mxCell>
        <mxCell id="yjY4PhzrJS9ordfUiITK-38" value="" style="strokeWidth=2;html=1;shape=mxgraph.flowchart.decision;whiteSpace=wrap;" parent="yjY4PhzrJS9ordfUiITK-24" vertex="1">
          <mxGeometry x="80.03999999999999" y="140" width="85" height="40" as="geometry" />
        </mxCell>
        <mxCell id="yjY4PhzrJS9ordfUiITK-39" value="登录成功" style="rounded=1;whiteSpace=wrap;html=1;" parent="yjY4PhzrJS9ordfUiITK-24" vertex="1">
          <mxGeometry x="62.53" y="220" width="120.03" height="40" as="geometry" />
        </mxCell>
        <mxCell id="yjY4PhzrJS9ordfUiITK-40" style="edgeStyle=orthogonalEdgeStyle;rounded=0;orthogonalLoop=1;jettySize=auto;html=1;exitX=0.5;exitY=1;exitDx=0;exitDy=0;entryX=0.5;entryY=0;entryDx=0;entryDy=0;entryPerimeter=0;endArrow=openThin;endFill=0;" parent="yjY4PhzrJS9ordfUiITK-24" source="yjY4PhzrJS9ordfUiITK-20" target="yjY4PhzrJS9ordfUiITK-38" edge="1">
          <mxGeometry relative="1" as="geometry" />
        </mxCell>
        <mxCell id="yjY4PhzrJS9ordfUiITK-34" value="药品管理" style="swimlane;startSize=20;html=1;" parent="yjY4PhzrJS9ordfUiITK-21" vertex="1">
          <mxGeometry x="570" y="20" width="120" height="460" as="geometry" />
        </mxCell>
        <mxCell id="8YP5VaKLG-nt9vqhNVLD-93" style="rounded=0;orthogonalLoop=1;jettySize=auto;html=1;exitX=1;exitY=0.5;exitDx=0;exitDy=0;entryX=0.75;entryY=0;entryDx=0;entryDy=0;endArrow=openThin;endFill=0;" parent="yjY4PhzrJS9ordfUiITK-34" source="8YP5VaKLG-nt9vqhNVLD-76" target="8YP5VaKLG-nt9vqhNVLD-89" edge="1">
          <mxGeometry relative="1" as="geometry" />
        </mxCell>
        <mxCell id="8YP5VaKLG-nt9vqhNVLD-76" value="添加&lt;div&gt;药品信息&lt;/div&gt;" style="rounded=1;whiteSpace=wrap;html=1;" parent="yjY4PhzrJS9ordfUiITK-34" vertex="1">
          <mxGeometry x="10" y="270" width="70" height="30" as="geometry" />
        </mxCell>
        <mxCell id="8YP5VaKLG-nt9vqhNVLD-92" style="rounded=0;orthogonalLoop=1;jettySize=auto;html=1;exitX=1;exitY=0.5;exitDx=0;exitDy=0;entryX=0.25;entryY=0;entryDx=0;entryDy=0;endArrow=openThin;endFill=0;" parent="yjY4PhzrJS9ordfUiITK-34" source="8YP5VaKLG-nt9vqhNVLD-78" target="8YP5VaKLG-nt9vqhNVLD-89" edge="1">
          <mxGeometry relative="1" as="geometry" />
        </mxCell>
        <mxCell id="8YP5VaKLG-nt9vqhNVLD-78" value="删除&lt;div&gt;药品信息&lt;/div&gt;" style="rounded=1;whiteSpace=wrap;html=1;" parent="yjY4PhzrJS9ordfUiITK-34" vertex="1">
          <mxGeometry x="10" y="305" width="70" height="30" as="geometry" />
        </mxCell>
        <mxCell id="8YP5VaKLG-nt9vqhNVLD-90" style="rounded=0;orthogonalLoop=1;jettySize=auto;html=1;exitX=1;exitY=0.5;exitDx=0;exitDy=0;entryX=0.5;entryY=1;entryDx=0;entryDy=0;endArrow=openThin;endFill=0;" parent="yjY4PhzrJS9ordfUiITK-34" source="8YP5VaKLG-nt9vqhNVLD-80" target="8YP5VaKLG-nt9vqhNVLD-89" edge="1">
          <mxGeometry relative="1" as="geometry" />
        </mxCell>
        <mxCell id="8YP5VaKLG-nt9vqhNVLD-80" value="修改&lt;div&gt;&lt;span style=&quot;background-color: initial;&quot;&gt;药品信息&lt;/span&gt;&lt;/div&gt;" style="rounded=1;whiteSpace=wrap;html=1;" parent="yjY4PhzrJS9ordfUiITK-34" vertex="1">
          <mxGeometry x="10" y="380" width="70" height="30" as="geometry" />
        </mxCell>
        <mxCell id="8YP5VaKLG-nt9vqhNVLD-91" style="rounded=0;orthogonalLoop=1;jettySize=auto;html=1;exitX=1;exitY=0.5;exitDx=0;exitDy=0;entryX=0.75;entryY=1;entryDx=0;entryDy=0;endArrow=openThin;endFill=0;" parent="yjY4PhzrJS9ordfUiITK-34" source="8YP5VaKLG-nt9vqhNVLD-82" target="8YP5VaKLG-nt9vqhNVLD-89" edge="1">
          <mxGeometry relative="1" as="geometry" />
        </mxCell>
        <mxCell id="8YP5VaKLG-nt9vqhNVLD-82" value="查询&lt;div&gt;&lt;span style=&quot;background-color: initial;&quot;&gt;药品信息&lt;/span&gt;&lt;/div&gt;" style="rounded=1;whiteSpace=wrap;html=1;" parent="yjY4PhzrJS9ordfUiITK-34" vertex="1">
          <mxGeometry x="10" y="420" width="70" height="35" as="geometry" />
        </mxCell>
        <mxCell id="8YP5VaKLG-nt9vqhNVLD-89" value="" style="shape=image;html=1;verticalAlign=top;verticalLabelPosition=bottom;labelBackgroundColor=#ffffff;imageAspect=0;aspect=fixed;image=https://cdn4.iconfinder.com/data/icons/ionicons/512/icon-ios7-circle-filled-128.png" parent="yjY4PhzrJS9ordfUiITK-34" vertex="1">
          <mxGeometry x="79.99999999999955" y="335" width="40" height="40" as="geometry" />
        </mxCell>
        <mxCell id="yjY4PhzrJS9ordfUiITK-62" style="rounded=0;orthogonalLoop=1;jettySize=auto;html=1;entryX=1;entryY=0.5;entryDx=0;entryDy=0;endArrow=openThin;endFill=0;exitX=0.75;exitY=1;exitDx=0;exitDy=0;" parent="yjY4PhzrJS9ordfUiITK-21" source="yjY4PhzrJS9ordfUiITK-39" target="8YP5VaKLG-nt9vqhNVLD-44" edge="1">
          <mxGeometry relative="1" as="geometry">
            <mxPoint x="549.9999999999995" y="300" as="sourcePoint" />
            <mxPoint x="359.99999999999955" y="127.5" as="targetPoint" />
          </mxGeometry>
        </mxCell>
        <mxCell id="8YP5VaKLG-nt9vqhNVLD-53" style="rounded=0;orthogonalLoop=1;jettySize=auto;html=1;entryX=1;entryY=0.5;entryDx=0;entryDy=0;endArrow=openThin;endFill=0;exitX=0.75;exitY=1;exitDx=0;exitDy=0;" parent="yjY4PhzrJS9ordfUiITK-21" source="yjY4PhzrJS9ordfUiITK-39" target="8YP5VaKLG-nt9vqhNVLD-46" edge="1">
          <mxGeometry relative="1" as="geometry">
            <mxPoint x="589.9999999999995" y="290" as="sourcePoint" />
          </mxGeometry>
        </mxCell>
        <mxCell id="8YP5VaKLG-nt9vqhNVLD-55" style="rounded=0;orthogonalLoop=1;jettySize=auto;html=1;entryX=1;entryY=0.5;entryDx=0;entryDy=0;endArrow=openThin;endFill=0;exitX=0.682;exitY=1.058;exitDx=0;exitDy=0;exitPerimeter=0;" parent="yjY4PhzrJS9ordfUiITK-21" source="yjY4PhzrJS9ordfUiITK-39" target="8YP5VaKLG-nt9vqhNVLD-48" edge="1">
          <mxGeometry relative="1" as="geometry">
            <mxPoint x="579.9999999999995" y="290" as="sourcePoint" />
          </mxGeometry>
        </mxCell>
        <mxCell id="8YP5VaKLG-nt9vqhNVLD-57" style="rounded=0;orthogonalLoop=1;jettySize=auto;html=1;exitX=0;exitY=0.75;exitDx=0;exitDy=0;entryX=1;entryY=0.5;entryDx=0;entryDy=0;endArrow=openThin;endFill=0;" parent="yjY4PhzrJS9ordfUiITK-21" source="yjY4PhzrJS9ordfUiITK-39" target="8YP5VaKLG-nt9vqhNVLD-31" edge="1">
          <mxGeometry relative="1" as="geometry" />
        </mxCell>
        <mxCell id="8YP5VaKLG-nt9vqhNVLD-59" style="rounded=0;orthogonalLoop=1;jettySize=auto;html=1;exitX=0;exitY=0.75;exitDx=0;exitDy=0;entryX=1;entryY=0.75;entryDx=0;entryDy=0;endArrow=openThin;endFill=0;" parent="yjY4PhzrJS9ordfUiITK-21" source="yjY4PhzrJS9ordfUiITK-39" target="8YP5VaKLG-nt9vqhNVLD-29" edge="1">
          <mxGeometry relative="1" as="geometry" />
        </mxCell>
        <mxCell id="8YP5VaKLG-nt9vqhNVLD-60" style="rounded=0;orthogonalLoop=1;jettySize=auto;html=1;exitX=0;exitY=0.75;exitDx=0;exitDy=0;entryX=1;entryY=0.75;entryDx=0;entryDy=0;endArrow=openThin;endFill=0;" parent="yjY4PhzrJS9ordfUiITK-21" source="yjY4PhzrJS9ordfUiITK-39" target="8YP5VaKLG-nt9vqhNVLD-27" edge="1">
          <mxGeometry relative="1" as="geometry" />
        </mxCell>
        <mxCell id="8YP5VaKLG-nt9vqhNVLD-61" style="rounded=0;orthogonalLoop=1;jettySize=auto;html=1;exitX=0;exitY=0.75;exitDx=0;exitDy=0;entryX=1;entryY=0.75;entryDx=0;entryDy=0;endArrow=openThin;endFill=0;" parent="yjY4PhzrJS9ordfUiITK-21" source="yjY4PhzrJS9ordfUiITK-39" target="8YP5VaKLG-nt9vqhNVLD-25" edge="1">
          <mxGeometry relative="1" as="geometry" />
        </mxCell>
        <mxCell id="8YP5VaKLG-nt9vqhNVLD-64" style="rounded=0;orthogonalLoop=1;jettySize=auto;html=1;exitX=0;exitY=0;exitDx=0;exitDy=0;entryX=1;entryY=0.5;entryDx=0;entryDy=0;endArrow=openThin;endFill=0;" parent="yjY4PhzrJS9ordfUiITK-21" source="yjY4PhzrJS9ordfUiITK-39" target="yjY4PhzrJS9ordfUiITK-46" edge="1">
          <mxGeometry relative="1" as="geometry" />
        </mxCell>
        <mxCell id="8YP5VaKLG-nt9vqhNVLD-65" style="rounded=0;orthogonalLoop=1;jettySize=auto;html=1;exitX=0.25;exitY=0;exitDx=0;exitDy=0;entryX=0.25;entryY=1;entryDx=0;entryDy=0;endArrow=openThin;endFill=0;" parent="yjY4PhzrJS9ordfUiITK-21" source="yjY4PhzrJS9ordfUiITK-39" target="yjY4PhzrJS9ordfUiITK-56" edge="1">
          <mxGeometry relative="1" as="geometry" />
        </mxCell>
        <mxCell id="8YP5VaKLG-nt9vqhNVLD-66" style="rounded=0;orthogonalLoop=1;jettySize=auto;html=1;exitX=0.25;exitY=0;exitDx=0;exitDy=0;entryX=1;entryY=0;entryDx=0;entryDy=0;endArrow=openThin;endFill=0;" parent="yjY4PhzrJS9ordfUiITK-21" source="yjY4PhzrJS9ordfUiITK-39" target="yjY4PhzrJS9ordfUiITK-45" edge="1">
          <mxGeometry relative="1" as="geometry" />
        </mxCell>
        <mxCell id="8YP5VaKLG-nt9vqhNVLD-56" style="rounded=0;orthogonalLoop=1;jettySize=auto;html=1;endArrow=openThin;endFill=0;exitX=0.75;exitY=1;exitDx=0;exitDy=0;entryX=1;entryY=0.75;entryDx=0;entryDy=0;" parent="yjY4PhzrJS9ordfUiITK-21" source="yjY4PhzrJS9ordfUiITK-39" target="8YP5VaKLG-nt9vqhNVLD-50" edge="1">
          <mxGeometry relative="1" as="geometry">
            <mxPoint x="509.99999999999955" y="450" as="targetPoint" />
            <mxPoint x="699.9999999999995" y="300" as="sourcePoint" />
          </mxGeometry>
        </mxCell>
        <mxCell id="8YP5VaKLG-nt9vqhNVLD-67" style="rounded=0;orthogonalLoop=1;jettySize=auto;html=1;exitX=0.25;exitY=0;exitDx=0;exitDy=0;entryX=1;entryY=0;entryDx=0;entryDy=0;endArrow=openThin;endFill=0;" parent="yjY4PhzrJS9ordfUiITK-21" source="yjY4PhzrJS9ordfUiITK-39" target="yjY4PhzrJS9ordfUiITK-44" edge="1">
          <mxGeometry relative="1" as="geometry" />
        </mxCell>
        <mxCell id="8YP5VaKLG-nt9vqhNVLD-85" style="rounded=0;orthogonalLoop=1;jettySize=auto;html=1;exitX=1;exitY=1;exitDx=0;exitDy=0;entryX=0;entryY=0.5;entryDx=0;entryDy=0;endArrow=openThin;endFill=0;" parent="yjY4PhzrJS9ordfUiITK-21" source="yjY4PhzrJS9ordfUiITK-39" target="8YP5VaKLG-nt9vqhNVLD-82" edge="1">
          <mxGeometry relative="1" as="geometry" />
        </mxCell>
        <mxCell id="8YP5VaKLG-nt9vqhNVLD-86" style="rounded=0;orthogonalLoop=1;jettySize=auto;html=1;exitX=1;exitY=1;exitDx=0;exitDy=0;entryX=0;entryY=0.75;entryDx=0;entryDy=0;endArrow=openThin;endFill=0;" parent="yjY4PhzrJS9ordfUiITK-21" source="yjY4PhzrJS9ordfUiITK-39" target="8YP5VaKLG-nt9vqhNVLD-80" edge="1">
          <mxGeometry relative="1" as="geometry" />
        </mxCell>
        <mxCell id="8YP5VaKLG-nt9vqhNVLD-87" style="rounded=0;orthogonalLoop=1;jettySize=auto;html=1;exitX=1;exitY=1;exitDx=0;exitDy=0;entryX=0;entryY=0.75;entryDx=0;entryDy=0;endArrow=openThin;endFill=0;" parent="yjY4PhzrJS9ordfUiITK-21" source="yjY4PhzrJS9ordfUiITK-39" target="8YP5VaKLG-nt9vqhNVLD-78" edge="1">
          <mxGeometry relative="1" as="geometry" />
        </mxCell>
        <mxCell id="8YP5VaKLG-nt9vqhNVLD-88" style="rounded=0;orthogonalLoop=1;jettySize=auto;html=1;exitX=1;exitY=1;exitDx=0;exitDy=0;entryX=0;entryY=0.75;entryDx=0;entryDy=0;endArrow=openThin;endFill=0;" parent="yjY4PhzrJS9ordfUiITK-21" source="yjY4PhzrJS9ordfUiITK-39" target="8YP5VaKLG-nt9vqhNVLD-76" edge="1">
          <mxGeometry relative="1" as="geometry" />
        </mxCell>
        <mxCell id="V--i8HyG6NaEhMeYPtIo-5" style="rounded=0;orthogonalLoop=1;jettySize=auto;html=1;exitX=0;exitY=0.5;exitDx=0;exitDy=0;exitPerimeter=0;entryX=1;entryY=0.25;entryDx=0;entryDy=0;endArrow=openThin;endFill=0;" parent="yjY4PhzrJS9ordfUiITK-21" source="V--i8HyG6NaEhMeYPtIo-1" target="8YP5VaKLG-nt9vqhNVLD-76" edge="1">
          <mxGeometry relative="1" as="geometry" />
        </mxCell>
        <mxCell id="V--i8HyG6NaEhMeYPtIo-6" value="无药品信息" style="edgeLabel;html=1;align=center;verticalAlign=middle;resizable=0;points=[];" parent="V--i8HyG6NaEhMeYPtIo-5" vertex="1" connectable="0">
          <mxGeometry x="-0.0849" y="2" relative="1" as="geometry">
            <mxPoint as="offset" />
          </mxGeometry>
        </mxCell>
        <mxCell id="V--i8HyG6NaEhMeYPtIo-7" style="rounded=0;orthogonalLoop=1;jettySize=auto;html=1;exitX=0.5;exitY=1;exitDx=0;exitDy=0;entryX=1;entryY=0.75;entryDx=0;entryDy=0;endArrow=openThin;endFill=0;exitPerimeter=0;" parent="yjY4PhzrJS9ordfUiITK-21" source="V--i8HyG6NaEhMeYPtIo-1" target="8YP5VaKLG-nt9vqhNVLD-82" edge="1">
          <mxGeometry relative="1" as="geometry" />
        </mxCell>
        <mxCell id="V--i8HyG6NaEhMeYPtIo-10" style="rounded=0;orthogonalLoop=1;jettySize=auto;html=1;exitX=1;exitY=0.75;exitDx=0;exitDy=0;entryX=0;entryY=0.25;entryDx=0;entryDy=0;endArrow=openThin;endFill=0;" parent="yjY4PhzrJS9ordfUiITK-21" source="yjY4PhzrJS9ordfUiITK-39" target="V--i8HyG6NaEhMeYPtIo-2" edge="1">
          <mxGeometry relative="1" as="geometry" />
        </mxCell>
        <mxCell id="HUSPPOHLwjbyx9S_wcUp-2" style="rounded=0;orthogonalLoop=1;jettySize=auto;html=1;exitX=0.75;exitY=0;exitDx=0;exitDy=0;entryX=0;entryY=0.75;entryDx=0;entryDy=0;endArrow=openThin;endFill=0;" parent="yjY4PhzrJS9ordfUiITK-21" source="yjY4PhzrJS9ordfUiITK-39" target="HUSPPOHLwjbyx9S_wcUp-1" edge="1">
          <mxGeometry relative="1" as="geometry" />
        </mxCell>
        <mxCell id="HUSPPOHLwjbyx9S_wcUp-6" style="rounded=0;orthogonalLoop=1;jettySize=auto;html=1;exitX=0.75;exitY=0;exitDx=0;exitDy=0;entryX=0;entryY=0.5;entryDx=0;entryDy=0;endArrow=openThin;endFill=0;" parent="yjY4PhzrJS9ordfUiITK-21" source="yjY4PhzrJS9ordfUiITK-39" target="HUSPPOHLwjbyx9S_wcUp-4" edge="1">
          <mxGeometry relative="1" as="geometry" />
        </mxCell>
        <mxCell id="HUSPPOHLwjbyx9S_wcUp-9" style="rounded=0;orthogonalLoop=1;jettySize=auto;html=1;exitX=1;exitY=0;exitDx=0;exitDy=0;entryX=0;entryY=0.5;entryDx=0;entryDy=0;endArrow=openThin;endFill=0;" parent="yjY4PhzrJS9ordfUiITK-21" source="yjY4PhzrJS9ordfUiITK-39" target="HUSPPOHLwjbyx9S_wcUp-8" edge="1">
          <mxGeometry relative="1" as="geometry" />
        </mxCell>
        <mxCell id="HUSPPOHLwjbyx9S_wcUp-12" style="rounded=0;orthogonalLoop=1;jettySize=auto;html=1;exitX=1;exitY=0;exitDx=0;exitDy=0;entryX=0.75;entryY=1;entryDx=0;entryDy=0;endArrow=openThin;endFill=0;" parent="yjY4PhzrJS9ordfUiITK-21" source="yjY4PhzrJS9ordfUiITK-39" target="HUSPPOHLwjbyx9S_wcUp-10" edge="1">
          <mxGeometry relative="1" as="geometry" />
        </mxCell>
        <mxCell id="HUSPPOHLwjbyx9S_wcUp-14" style="edgeStyle=orthogonalEdgeStyle;rounded=0;orthogonalLoop=1;jettySize=auto;html=1;exitX=1;exitY=0.25;exitDx=0;exitDy=0;entryX=0;entryY=0.5;entryDx=0;entryDy=0;endArrow=openThin;endFill=0;" parent="yjY4PhzrJS9ordfUiITK-21" source="yjY4PhzrJS9ordfUiITK-39" target="HUSPPOHLwjbyx9S_wcUp-13" edge="1">
          <mxGeometry relative="1" as="geometry" />
        </mxCell>
        <mxCell id="yjY4PhzrJS9ordfUiITK-35" value="库存管理" style="swimlane;startSize=20;html=1;" parent="yjY4PhzrJS9ordfUiITK-21" vertex="1">
          <mxGeometry x="690" y="20" width="280" height="460" as="geometry" />
        </mxCell>
        <mxCell id="V--i8HyG6NaEhMeYPtIo-8" style="edgeStyle=orthogonalEdgeStyle;rounded=0;orthogonalLoop=1;jettySize=auto;html=1;exitX=1;exitY=0.5;exitDx=0;exitDy=0;exitPerimeter=0;entryX=1;entryY=0.5;entryDx=0;entryDy=0;endArrow=openThin;endFill=0;" parent="yjY4PhzrJS9ordfUiITK-35" source="V--i8HyG6NaEhMeYPtIo-1" target="V--i8HyG6NaEhMeYPtIo-2" edge="1">
          <mxGeometry relative="1" as="geometry" />
        </mxCell>
        <mxCell id="V--i8HyG6NaEhMeYPtIo-9" value="有药品信息" style="edgeLabel;html=1;align=center;verticalAlign=middle;resizable=0;points=[];" parent="V--i8HyG6NaEhMeYPtIo-8" vertex="1" connectable="0">
          <mxGeometry x="-0.0318" y="2" relative="1" as="geometry">
            <mxPoint as="offset" />
          </mxGeometry>
        </mxCell>
        <mxCell id="V--i8HyG6NaEhMeYPtIo-1" value="判断" style="strokeWidth=2;html=1;shape=mxgraph.flowchart.decision;whiteSpace=wrap;" parent="yjY4PhzrJS9ordfUiITK-35" vertex="1">
          <mxGeometry x="89.99999999999994" y="335" width="85" height="40" as="geometry" />
        </mxCell>
        <mxCell id="HUSPPOHLwjbyx9S_wcUp-15" style="edgeStyle=orthogonalEdgeStyle;rounded=0;orthogonalLoop=1;jettySize=auto;html=1;exitX=0.5;exitY=0;exitDx=0;exitDy=0;entryX=0.5;entryY=1;entryDx=0;entryDy=0;endArrow=openThin;endFill=0;" parent="yjY4PhzrJS9ordfUiITK-35" source="V--i8HyG6NaEhMeYPtIo-2" target="HUSPPOHLwjbyx9S_wcUp-13" edge="1">
          <mxGeometry relative="1" as="geometry" />
        </mxCell>
        <mxCell id="V--i8HyG6NaEhMeYPtIo-2" value="药品入库" style="rounded=1;whiteSpace=wrap;html=1;" parent="yjY4PhzrJS9ordfUiITK-35" vertex="1">
          <mxGeometry x="90" y="280" width="60" height="30" as="geometry" />
        </mxCell>
        <mxCell id="V--i8HyG6NaEhMeYPtIo-3" style="edgeStyle=orthogonalEdgeStyle;rounded=0;orthogonalLoop=1;jettySize=auto;html=1;exitX=0.5;exitY=1;exitDx=0;exitDy=0;entryX=0.5;entryY=0;entryDx=0;entryDy=0;entryPerimeter=0;endArrow=openThin;endFill=0;" parent="yjY4PhzrJS9ordfUiITK-35" source="V--i8HyG6NaEhMeYPtIo-2" target="V--i8HyG6NaEhMeYPtIo-1" edge="1">
          <mxGeometry relative="1" as="geometry" />
        </mxCell>
        <mxCell id="HUSPPOHLwjbyx9S_wcUp-5" style="edgeStyle=orthogonalEdgeStyle;rounded=0;orthogonalLoop=1;jettySize=auto;html=1;exitX=0.5;exitY=1;exitDx=0;exitDy=0;entryX=0.5;entryY=0;entryDx=0;entryDy=0;endArrow=openThin;endFill=0;" parent="yjY4PhzrJS9ordfUiITK-35" source="HUSPPOHLwjbyx9S_wcUp-1" target="HUSPPOHLwjbyx9S_wcUp-4" edge="1">
          <mxGeometry relative="1" as="geometry" />
        </mxCell>
        <mxCell id="HUSPPOHLwjbyx9S_wcUp-1" value="药品采购" style="rounded=1;whiteSpace=wrap;html=1;" parent="yjY4PhzrJS9ordfUiITK-35" vertex="1">
          <mxGeometry x="9.999999999999545" y="30" width="60" height="30" as="geometry" />
        </mxCell>
        <mxCell id="WdKyNn4TMUDTQpUULAMZ-3" style="rounded=0;orthogonalLoop=1;jettySize=auto;html=1;exitX=0.5;exitY=1;exitDx=0;exitDy=0;entryX=0.5;entryY=0;entryDx=0;entryDy=0;endArrow=openThin;endFill=0;" edge="1" parent="yjY4PhzrJS9ordfUiITK-35" source="HUSPPOHLwjbyx9S_wcUp-4" target="WdKyNn4TMUDTQpUULAMZ-1">
          <mxGeometry relative="1" as="geometry" />
        </mxCell>
        <mxCell id="HUSPPOHLwjbyx9S_wcUp-4" value="采购记录查询" style="rounded=1;whiteSpace=wrap;html=1;" parent="yjY4PhzrJS9ordfUiITK-35" vertex="1">
          <mxGeometry x="10" y="90" width="60" height="30" as="geometry" />
        </mxCell>
        <mxCell id="HUSPPOHLwjbyx9S_wcUp-17" style="rounded=0;orthogonalLoop=1;jettySize=auto;html=1;exitX=0.5;exitY=0;exitDx=0;exitDy=0;entryX=0.5;entryY=1;entryDx=0;entryDy=0;endArrow=openThin;endFill=0;" parent="yjY4PhzrJS9ordfUiITK-35" source="HUSPPOHLwjbyx9S_wcUp-8" target="HUSPPOHLwjbyx9S_wcUp-10" edge="1">
          <mxGeometry relative="1" as="geometry" />
        </mxCell>
        <mxCell id="WdKyNn4TMUDTQpUULAMZ-5" style="rounded=0;orthogonalLoop=1;jettySize=auto;html=1;exitX=0.25;exitY=1;exitDx=0;exitDy=0;entryX=1;entryY=0.5;entryDx=0;entryDy=0;endArrow=openThin;endFill=0;" edge="1" parent="yjY4PhzrJS9ordfUiITK-35" source="HUSPPOHLwjbyx9S_wcUp-8" target="WdKyNn4TMUDTQpUULAMZ-1">
          <mxGeometry relative="1" as="geometry" />
        </mxCell>
        <mxCell id="HUSPPOHLwjbyx9S_wcUp-8" value="药品出售" style="rounded=1;whiteSpace=wrap;html=1;" parent="yjY4PhzrJS9ordfUiITK-35" vertex="1">
          <mxGeometry x="160" y="90" width="60" height="30" as="geometry" />
        </mxCell>
        <mxCell id="WdKyNn4TMUDTQpUULAMZ-4" style="rounded=0;orthogonalLoop=1;jettySize=auto;html=1;exitX=0;exitY=1;exitDx=0;exitDy=0;entryX=1;entryY=0.25;entryDx=0;entryDy=0;endArrow=openThin;endFill=0;" edge="1" parent="yjY4PhzrJS9ordfUiITK-35" source="HUSPPOHLwjbyx9S_wcUp-10" target="WdKyNn4TMUDTQpUULAMZ-1">
          <mxGeometry relative="1" as="geometry" />
        </mxCell>
        <mxCell id="HUSPPOHLwjbyx9S_wcUp-10" value="出售记录查询" style="rounded=1;whiteSpace=wrap;html=1;" parent="yjY4PhzrJS9ordfUiITK-35" vertex="1">
          <mxGeometry x="160" y="30" width="60" height="30" as="geometry" />
        </mxCell>
        <mxCell id="WdKyNn4TMUDTQpUULAMZ-2" style="rounded=0;orthogonalLoop=1;jettySize=auto;html=1;exitX=0.5;exitY=0;exitDx=0;exitDy=0;entryX=1;entryY=0.5;entryDx=0;entryDy=0;endArrow=openThin;endFill=0;" edge="1" parent="yjY4PhzrJS9ordfUiITK-35" source="HUSPPOHLwjbyx9S_wcUp-13" target="WdKyNn4TMUDTQpUULAMZ-1">
          <mxGeometry relative="1" as="geometry" />
        </mxCell>
        <mxCell id="HUSPPOHLwjbyx9S_wcUp-13" value="库存盘点" style="rounded=1;whiteSpace=wrap;html=1;" parent="yjY4PhzrJS9ordfUiITK-35" vertex="1">
          <mxGeometry x="91" y="215" width="60" height="30" as="geometry" />
        </mxCell>
        <mxCell id="HUSPPOHLwjbyx9S_wcUp-23" style="rounded=0;orthogonalLoop=1;jettySize=auto;html=1;exitX=0;exitY=0.5;exitDx=0;exitDy=0;exitPerimeter=0;entryX=0.5;entryY=1;entryDx=0;entryDy=0;endArrow=openThin;endFill=0;" parent="yjY4PhzrJS9ordfUiITK-35" source="HUSPPOHLwjbyx9S_wcUp-18" target="HUSPPOHLwjbyx9S_wcUp-8" edge="1">
          <mxGeometry relative="1" as="geometry" />
        </mxCell>
        <mxCell id="HUSPPOHLwjbyx9S_wcUp-25" value="药品库存充足" style="edgeLabel;html=1;align=center;verticalAlign=middle;resizable=0;points=[];" parent="HUSPPOHLwjbyx9S_wcUp-23" vertex="1" connectable="0">
          <mxGeometry x="0.0889" y="1" relative="1" as="geometry">
            <mxPoint as="offset" />
          </mxGeometry>
        </mxCell>
        <mxCell id="HUSPPOHLwjbyx9S_wcUp-27" style="edgeStyle=orthogonalEdgeStyle;rounded=0;orthogonalLoop=1;jettySize=auto;html=1;exitX=0.5;exitY=1;exitDx=0;exitDy=0;exitPerimeter=0;entryX=0.5;entryY=0;entryDx=0;entryDy=0;endArrow=openThin;endFill=0;" parent="yjY4PhzrJS9ordfUiITK-35" source="HUSPPOHLwjbyx9S_wcUp-18" target="HUSPPOHLwjbyx9S_wcUp-26" edge="1">
          <mxGeometry relative="1" as="geometry" />
        </mxCell>
        <mxCell id="HUSPPOHLwjbyx9S_wcUp-28" value="药品库存不足" style="edgeLabel;html=1;align=center;verticalAlign=middle;resizable=0;points=[];" parent="HUSPPOHLwjbyx9S_wcUp-27" vertex="1" connectable="0">
          <mxGeometry x="-0.0667" y="-2" relative="1" as="geometry">
            <mxPoint as="offset" />
          </mxGeometry>
        </mxCell>
        <mxCell id="HUSPPOHLwjbyx9S_wcUp-18" value="判断" style="strokeWidth=2;html=1;shape=mxgraph.flowchart.decision;whiteSpace=wrap;" parent="yjY4PhzrJS9ordfUiITK-35" vertex="1">
          <mxGeometry x="190" y="160" width="80" height="40" as="geometry" />
        </mxCell>
        <mxCell id="HUSPPOHLwjbyx9S_wcUp-19" style="rounded=0;orthogonalLoop=1;jettySize=auto;html=1;exitX=0.25;exitY=0;exitDx=0;exitDy=0;endArrow=openThin;endFill=0;entryX=0.271;entryY=0.792;entryDx=0;entryDy=0;entryPerimeter=0;" parent="yjY4PhzrJS9ordfUiITK-35" source="HUSPPOHLwjbyx9S_wcUp-13" target="HUSPPOHLwjbyx9S_wcUp-18" edge="1">
          <mxGeometry relative="1" as="geometry">
            <mxPoint x="139.99999999999955" y="190" as="targetPoint" />
          </mxGeometry>
        </mxCell>
        <mxCell id="HUSPPOHLwjbyx9S_wcUp-24" style="edgeStyle=orthogonalEdgeStyle;rounded=0;orthogonalLoop=1;jettySize=auto;html=1;exitX=1;exitY=0.5;exitDx=0;exitDy=0;entryX=0.5;entryY=0;entryDx=0;entryDy=0;entryPerimeter=0;endArrow=openThin;endFill=0;" parent="yjY4PhzrJS9ordfUiITK-35" source="HUSPPOHLwjbyx9S_wcUp-8" target="HUSPPOHLwjbyx9S_wcUp-18" edge="1">
          <mxGeometry relative="1" as="geometry">
            <Array as="points">
              <mxPoint x="230" y="105" />
            </Array>
          </mxGeometry>
        </mxCell>
        <mxCell id="HUSPPOHLwjbyx9S_wcUp-26" value="提示药品库存不足" style="rounded=1;whiteSpace=wrap;html=1;" parent="yjY4PhzrJS9ordfUiITK-35" vertex="1">
          <mxGeometry x="199.99999999999955" y="250" width="60" height="30" as="geometry" />
        </mxCell>
        <mxCell id="WdKyNn4TMUDTQpUULAMZ-1" value="" style="shape=image;html=1;verticalAlign=top;verticalLabelPosition=bottom;labelBackgroundColor=#ffffff;imageAspect=0;aspect=fixed;image=https://cdn4.iconfinder.com/data/icons/ionicons/512/icon-ios7-circle-filled-128.png" vertex="1" parent="yjY4PhzrJS9ordfUiITK-35">
          <mxGeometry x="29.999999999999545" y="170" width="40" height="40" as="geometry" />
        </mxCell>
      </root>
    </mxGraphModel>
  </diagram>
</mxfile>
